<svg width="33" height="20" viewBox="0 0 33 20" fill="none" xmlns="http://www.w3.org/2000/svg">
<path d="M32.3998 18.9C32.3998 19.5 31.8998 20 31.2998 20H1.3998C0.799796 20 0.299805 19.5 0.299805 18.9V1.1C0.299805 0.5 0.799796 0 1.3998 0H31.2998C31.8998 0 32.3998 0.5 32.3998 1.1V18.9Z" fill="#F9F9F9"/>
<path fill-rule="evenodd" clip-rule="evenodd" d="M18.7 12C17.6 12.8 16 13.3 14.6 13.3C12.7 13.3 10.9 12.6 9.60002 11.4C9.50002 11.3 9.60001 11.2 9.70001 11.3C11.1 12.1 12.9 12.6 14.7 12.6C15.9 12.6 17.3 12.3 18.5 11.8C18.7 11.7 18.9 11.9 18.7 12Z" fill="#FF9900"/>
<path fill-rule="evenodd" clip-rule="evenodd" d="M19.2002 11.4999C19.1002 11.2999 18.3002 11.3999 17.9002 11.4999C17.8002 11.4999 17.8002 11.3999 17.9002 11.2999C18.5002 10.8999 19.6002 10.9999 19.7002 11.0999C19.8002 11.2999 19.7002 12.2999 19.1002 12.7999C19.0002 12.8999 18.9002 12.7999 19.0002 12.6999C19.0002 12.3999 19.3002 11.6999 19.2002 11.4999Z" fill="#FF9900"/>
<path fill-rule="evenodd" clip-rule="evenodd" d="M17.8999 8.1001V7.7001C17.8999 7.6001 17.9999 7.6001 17.9999 7.6001H19.9999C20.0999 7.6001 20.0999 7.6001 20.0999 7.7001V8.1001C20.0999 8.2001 19.9999 8.2001 19.9999 8.4001L18.9999 9.8001C19.3999 9.8001 19.7999 9.8001 20.0999 10.0001C20.1999 10.0001 20.1999 10.1001 20.1999 10.2001V10.7001C20.1999 10.8001 20.0999 10.8001 20.0999 10.8001C19.4999 10.5001 18.6999 10.5001 17.9999 10.8001C17.8999 10.8001 17.8999 10.8001 17.8999 10.7001V10.3001C17.8999 10.2001 17.8999 10.1001 17.9999 10.0001L19.1999 8.3001H18.1999C17.8999 8.3001 17.8999 8.2001 17.8999 8.1001Z" fill="black"/>
<path fill-rule="evenodd" clip-rule="evenodd" d="M10.7996 10.9001H10.1996C10.0996 10.9001 10.0996 10.9001 10.0996 10.8001V7.8001C10.0996 7.7001 10.1996 7.7001 10.1996 7.7001H10.7996C10.8996 7.7001 10.8996 7.7001 10.8996 7.8001V8.2001C10.9996 7.8001 11.2996 7.6001 11.6996 7.6001C12.0996 7.6001 12.2996 7.8001 12.4996 8.2001C12.5996 7.8001 12.9996 7.6001 13.2996 7.6001C13.4996 7.6001 13.7996 7.7001 13.9996 7.9001C14.1996 8.2001 14.0996 8.5001 14.0996 8.9001V10.8001C14.0996 10.9001 13.9996 10.9001 13.9996 10.9001H13.3996C13.2996 10.9001 13.2996 10.8001 13.2996 10.8001V9.2001C13.2996 9.1001 13.2996 8.8001 13.2996 8.6001C13.2996 8.4001 13.0996 8.3001 12.9996 8.3001C12.8996 8.3001 12.6996 8.4001 12.5996 8.6001C12.4996 8.8001 12.4996 9.0001 12.4996 9.2001V10.8001C12.4996 10.9001 12.3996 10.9001 12.3996 10.9001H11.7996C11.6996 10.9001 11.6996 10.8001 11.6996 10.8001V9.2001C11.6996 8.9001 11.7996 8.4001 11.2996 8.4001C10.8996 8.4001 10.8996 8.9001 10.8996 9.2001V10.8001L10.7996 10.9001Z" fill="black"/>
<path fill-rule="evenodd" clip-rule="evenodd" d="M21.6999 7.5C22.5999 7.5 23.0999 8.3 23.0999 9.2C23.0999 10.1 22.5999 10.9 21.6999 10.9C20.7999 10.9 20.3999 10.1 20.3999 9.2C20.3999 8.3 20.8999 7.5 21.6999 7.5ZM21.6999 8.2C21.2999 8.2 21.1999 8.8 21.1999 9.2C21.1999 9.6 21.1999 10.4 21.6999 10.4C22.1999 10.4 22.1999 9.8 22.1999 9.4C22.1999 9.1 22.1999 8.8 22.0999 8.6C22.0999 8.2 21.8999 8.2 21.6999 8.2Z" fill="black"/>
<path fill-rule="evenodd" clip-rule="evenodd" d="M24.2 10.9H23.6C23.5 10.9 23.5 10.8 23.5 10.8V7.79995C23.5 7.69995 23.6 7.69995 23.6 7.69995H24.2C24.3 7.69995 24.3 7.69995 24.3 7.79995V8.29995C24.5 7.89995 24.7 7.69995 25.1 7.69995C25.4 7.69995 25.6 7.79995 25.8 8.09995C26 8.29995 26 8.79995 26 8.99995V10.9C26 11 25.9 11 25.9 11H25.3C25.2 11 25.2 11 25.2 10.9V9.09995C25.2 8.79995 25.2 8.29995 24.8 8.29995C24.7 8.29995 24.5 8.39995 24.5 8.49995C24.4 8.69995 24.4 8.89995 24.4 9.09995V10.7C24.3 10.8 24.3 10.9 24.2 10.9Z" fill="black"/>
<path fill-rule="evenodd" clip-rule="evenodd" d="M16.2996 9.4C16.2996 9.6 16.2996 9.8 16.1996 10C16.0996 10.2 15.9996 10.3 15.7996 10.3C15.5996 10.3 15.3996 10.1 15.3996 9.9C15.3996 9.4 15.8996 9.3 16.2996 9.3V9.4ZM16.8996 10.9H16.7996C16.5996 10.7 16.5996 10.7 16.4996 10.5C16.1996 10.8 15.8996 10.9 15.4996 10.9C14.9996 10.9 14.5996 10.6 14.5996 10C14.5996 9.5 14.8996 9.2 15.1996 9C15.4996 8.9 15.9996 8.8 16.2996 8.8V8.7C16.2996 8.6 16.2996 8.4 16.1996 8.3C16.0996 8.2 15.9996 8.1 15.8996 8.1C15.6996 8.1 15.4996 8.2 15.3996 8.5C15.3996 8.6 15.3996 8.6 15.2996 8.6L14.6996 8.5C14.6996 8.5 14.5996 8.5 14.5996 8.4C14.6996 7.7 15.3996 7.5 15.8996 7.5C16.1996 7.5 16.5996 7.6 16.7996 7.8C17.0996 8.1 17.0996 8.4 17.0996 8.8V9.7C17.0996 10 17.1996 10.1 17.2996 10.2C17.2996 10.3 17.2996 10.3 17.2996 10.4C17.2996 10.6 16.9996 10.7 16.8996 10.9Z" fill="black"/>
<path fill-rule="evenodd" clip-rule="evenodd" d="M8.4998 9.4C8.4998 9.6 8.4998 9.8 8.3998 10C8.2998 10.2 8.1998 10.3 7.9998 10.3C7.7998 10.3 7.59981 10.1 7.59981 9.9C7.59981 9.4 8.0998 9.3 8.4998 9.3V9.4ZM9.09981 10.9H8.9998C8.7998 10.7 8.7998 10.7 8.6998 10.5C8.3998 10.8 8.0998 10.9 7.6998 10.9C7.1998 10.9 6.7998 10.6 6.7998 10C6.7998 9.5 7.0998 9.2 7.3998 9C7.6998 8.9 8.1998 8.8 8.4998 8.8V8.7C8.4998 8.6 8.4998 8.4 8.3998 8.3C8.2998 8.2 8.19981 8.1 8.09981 8.1C7.89981 8.1 7.69981 8.2 7.59981 8.5C7.59981 8.6 7.5998 8.6 7.4998 8.6L6.9998 8.5C6.9998 8.5 6.8998 8.5 6.8998 8.4C6.9998 7.7 7.6998 7.5 8.1998 7.5C8.4998 7.5 8.89981 7.6 9.09981 7.8C9.39981 8.1 9.3998 8.4 9.3998 8.8V9.7C9.3998 10 9.49981 10.1 9.59981 10.2C9.59981 10.3 9.59981 10.3 9.59981 10.4C9.49981 10.6 9.29981 10.7 9.09981 10.9Z" fill="black"/>
</svg>
