<svg width="15" height="31" viewBox="0 0 15 31" fill="none" xmlns="http://www.w3.org/2000/svg">
<path d="M7.19949 15.8999C7.29679 15.8999 7.29679 15.8999 7.19949 15.8999L1.16696 6.20001C0.875068 5.70002 0.68047 5.40002 0.485872 5.10002C0.388574 4.80003 0.291274 4.50003 0.291274 4.10003C0.193974 3.40004 0.777769 2.60004 2.13995 1.70005C3.40484 1.00006 4.37782 0.700061 4.96162 1.10006C5.25351 1.30006 5.54541 1.50005 5.74001 1.70005C5.9346 1.90005 6.1292 2.30005 6.5184 2.80004L13.4266 13.6999C13.7185 14.1999 13.9131 14.4999 14.1077 14.7999C14.1077 14.8999 14.205 14.9999 14.205 14.9999C14.3996 15.4999 14.3996 15.9999 14.3023 16.4999C14.3023 16.6999 14.205 16.7999 14.205 16.8999C14.1077 17.1999 13.9131 17.4999 13.5239 17.9999L6.61569 28.7998C6.3238 29.1998 6.1292 29.4998 6.0319 29.6998C5.64271 30.2998 5.15621 30.5998 4.66972 30.6998C4.08593 30.7998 3.21024 30.4998 2.23725 29.8998C0.972365 28.9998 0.291274 28.2998 0.388573 27.4998C0.485871 27.0998 0.485873 26.7998 0.68047 26.4998C0.777769 26.1998 0.972365 25.8998 1.36156 25.3998C1.16696 25.3998 6.71299 16.7999 7.19949 15.8999Z" fill="#FAF9F7"/>
</svg>
