<svg width="15" height="31" viewBox="0 0 15 31" fill="none" xmlns="http://www.w3.org/2000/svg">
<path d="M7.44884 15.8999C7.35154 15.8999 7.35154 15.8999 7.44884 15.8999L13.4813 6.20001C13.7732 5.70002 13.9678 5.40002 14.1624 5.10002C14.2597 4.80003 14.3569 4.50003 14.3569 4.10003C14.4542 3.40004 13.8705 2.60004 12.5083 1.70005C11.2434 1.00006 10.2705 0.700061 9.68668 1.10006C9.39478 1.30006 9.10289 1.50005 8.9083 1.70005C8.71371 1.90005 8.51911 2.30005 8.12992 2.80004L1.22181 13.6999C0.929922 14.1999 0.735326 14.4999 0.540732 14.7999C0.540732 14.8999 0.443434 14.9999 0.443434 14.9999C0.24884 15.4999 0.248839 15.9999 0.346137 16.4999C0.346137 16.6999 0.443434 16.7999 0.443434 16.8999C0.540732 17.1999 0.735327 17.4999 1.12452 17.9999L8.03262 28.7998C8.32452 29.1998 8.51911 29.4998 8.61641 29.6998C9.0056 30.2998 9.49208 30.5998 9.97857 30.6998C10.5624 30.7998 11.438 30.4998 12.411 29.8998C13.6759 28.9998 14.3569 28.2998 14.2597 27.4998C14.1624 27.0998 14.1624 26.7998 13.9678 26.4998C13.8705 26.1998 13.6759 25.8998 13.2867 25.3998C13.4813 25.3998 7.93533 16.7999 7.44884 15.8999Z" fill="#FAF9F7"/>
</svg>
