<svg width="28" height="17" viewBox="0 0 28 17" fill="none" xmlns="http://www.w3.org/2000/svg">
<path d="M27.75 8.74305L23.125 4.09977H19.75V1.84087C19.75 1.2134 19.25 0.711426 18.625 0.711426H6C5.375 0.711426 4.875 1.2134 4.875 1.84087H0.875C0.5 1.84087 0.25 2.09186 0.25 2.46834C0.25 2.84483 0.5 3.09581 0.875 3.09581H4.875V5.35471H2C1.625 5.35471 1.375 5.6057 1.375 5.98218C1.375 6.35866 1.625 6.60965 2 6.60965H4.875V8.86854H3.125C2.75 8.74305 2.5 8.99404 2.5 9.37052C2.5 9.747 2.75 9.99799 3.125 9.99799H4.875V12.2569H4.25C4 12.2569 3.75 12.5079 3.75 12.7589C3.75 13.1353 4 13.3863 4.375 13.3863H5C5 14.0138 5.5 14.5158 6.125 14.5158H7.375C7.625 15.7707 8.75 16.7747 10.125 16.7747C11.5 16.7747 12.625 15.7707 12.875 14.5158H18.625H20.375C20.625 15.7707 21.75 16.7747 23.125 16.7747C24.5 16.7747 25.625 15.7707 25.875 14.5158H27.75V8.74305ZM10 15.6452C9 15.6452 8.25 14.8923 8.25 13.8883C8.25 12.8844 9 12.1314 10 12.1314C11 12.1314 11.75 12.8844 11.75 13.8883C11.75 14.8923 11 15.6452 10 15.6452ZM18.625 13.3863H12.75C12.5 12.0059 11.375 11.0019 10 11.0019C8.625 11.0019 7.5 12.0059 7.25 13.2608H6V1.71538H18.625V13.3863ZM23.125 15.6452C22.125 15.6452 21.375 14.8923 21.375 13.8883C21.375 12.8844 22.125 12.1314 23.125 12.1314C24.125 12.1314 24.875 12.8844 24.875 13.8883C24.875 14.8923 24.125 15.6452 23.125 15.6452ZM26.625 13.3863H26C25.75 12.1314 24.625 11.1274 23.25 11.1274C21.875 11.1274 20.75 12.1314 20.5 13.3863H19.875V5.35471H22.75L26.625 9.24503V13.3863Z" fill="black"/>
</svg>
