<svg width="20" height="18" viewBox="0 0 20 18" fill="none" xmlns="http://www.w3.org/2000/svg">
<g clip-path="url(#clip0)">
<path d="M19.4856 3.37138C19.4925 3.34322 19.4925 3.31383 19.4856 3.28567V3.28567L19.4189 3.23805H19.3618H19.3142H4.67607L4.2475 0.733288V0.666622V0.619003L4.14274 0.552336H4.06655H0.809408C0.73011 0.532297 0.646415 0.538993 0.571312 0.571384C0.512307 0.636926 0.478548 0.721324 0.476074 0.809479C0.478548 0.897634 0.512307 0.982032 0.571312 1.04757C0.636854 1.10658 0.721253 1.14034 0.809408 1.14281H3.66655L4.0856 3.55234L5.54274 12.3809C5.55408 12.4575 5.591 12.528 5.6475 12.5809C5.71083 12.6285 5.78739 12.6551 5.86655 12.6571H17.7237C17.8002 12.6565 17.8742 12.6296 17.9332 12.5809C18.0099 12.5363 18.0675 12.4652 18.0951 12.3809L19.5618 3.53329C19.5713 3.48936 19.5713 3.44389 19.5618 3.39996L19.4856 3.37138Z" stroke="black" stroke-miterlimit="10"/>
<path d="M6.66643 14.9714C6.75522 14.9721 6.84286 14.9916 6.92358 15.0286C7.04165 15.0799 7.14366 15.1621 7.21881 15.2667C7.28627 15.3789 7.32244 15.5071 7.32358 15.6381C7.32486 15.7247 7.30874 15.8108 7.27617 15.8911C7.2436 15.9714 7.19524 16.0443 7.13396 16.1056C7.07269 16.1669 6.99973 16.2153 6.91942 16.2478C6.83911 16.2804 6.75309 16.2965 6.66643 16.2952C6.5479 16.291 6.43272 16.2548 6.3331 16.1905C6.22436 16.1199 6.14095 16.0165 6.09501 15.8952C6.04443 15.7756 6.03101 15.6435 6.05649 15.5161C6.08197 15.3887 6.14516 15.2719 6.23786 15.1809C6.3269 15.0867 6.44367 15.0233 6.5712 15H6.70453L6.66643 14.9714ZM6.70453 14.0476C6.60023 14.0336 6.49454 14.0336 6.39024 14.0476C6.07572 14.1054 5.7865 14.2583 5.56167 14.4857C5.33363 14.708 5.17666 14.993 5.11064 15.3046C5.04463 15.6161 5.07252 15.9403 5.1908 16.236C5.30908 16.5317 5.51243 16.7856 5.7751 16.9657C6.03778 17.1458 6.34798 17.2439 6.66643 17.2476C7.09543 17.2466 7.50647 17.0753 7.80929 16.7714C7.95903 16.6234 8.07751 16.4468 8.15767 16.2521C8.23784 16.0574 8.27806 15.8486 8.27596 15.6381C8.27695 15.32 8.1842 15.0086 8.00929 14.7429C7.83141 14.4768 7.5799 14.2683 7.28548 14.1429C7.08833 14.0644 6.87858 14.0225 6.66643 14.019L6.70453 14.0476Z" fill="black"/>
<path d="M16.619 14.9714C16.7049 14.971 16.7897 14.9905 16.8667 15.0286C16.9751 15.0736 17.0703 15.1458 17.1428 15.2381C17.2103 15.3503 17.2465 15.4786 17.2476 15.6095C17.2489 15.6962 17.2328 15.7822 17.2002 15.8625C17.1676 15.9428 17.1193 16.0158 17.058 16.0771C16.9967 16.1383 16.9238 16.1867 16.8435 16.2193C16.7631 16.2518 16.6771 16.268 16.5905 16.2667C16.458 16.2669 16.3285 16.2271 16.219 16.1524C16.1103 16.0818 16.0269 15.9784 15.9809 15.8572C15.9381 15.7338 15.9381 15.5996 15.9809 15.4762C16.0061 15.3493 16.0692 15.2331 16.1619 15.1429C16.2509 15.0486 16.3677 14.9852 16.4952 14.9619H16.6286L16.619 14.9714ZM16.6286 14.0095C16.5243 13.9955 16.4186 13.9955 16.3143 14.0095C16.0003 14.069 15.7116 14.2217 15.4857 14.4476C15.2597 14.6735 15.1071 14.9623 15.0476 15.2762C15.0025 15.5087 15.0096 15.7483 15.0683 15.9777C15.127 16.2071 15.2359 16.4206 15.3871 16.6029C15.5384 16.7851 15.7282 16.9315 15.9429 17.0314C16.1576 17.1314 16.3918 17.1825 16.6286 17.181C16.9193 17.1787 17.2041 17.0983 17.453 16.948C17.7019 16.7977 17.9057 16.5832 18.0431 16.327C18.1804 16.0707 18.2463 15.7822 18.2337 15.4918C18.2211 15.2013 18.1305 14.9196 17.9714 14.6762C17.7935 14.4101 17.542 14.2017 17.2476 14.0762C17.0505 13.9978 16.8407 13.9558 16.6286 13.9524V14.0095Z" fill="black"/>
</g>
<defs>
<clipPath id="clip0">
<rect width="20" height="17.2476" fill="white"/>
</clipPath>
</defs>
</svg>
