<svg width="24" height="24" viewBox="0 0 24 24" fill="none" xmlns="http://www.w3.org/2000/svg">
<path d="M7.9501 4.64125C7.29872 4.63646 6.6529 4.76122 6.05018 5.00828C5.44746 5.25535 4.89987 5.61978 4.43927 6.08038C3.97866 6.54098 3.61423 7.08857 3.36717 7.69129C3.12011 8.29401 2.99534 8.93984 3.00013 9.59121C3.00013 14.5052 12.0001 19.4101 12.0001 19.4101C12.0001 19.4101 21 14.5052 21 9.59121C21 8.53635 20.6599 7.50959 20.0303 6.66329C19.4006 5.81698 18.5148 5.19622 17.5045 4.89311C16.4941 4.58999 15.4129 4.62068 14.4214 4.98062C13.4298 5.34056 12.5807 6.01057 12.0001 6.89123C11.5638 6.21042 10.9655 5.64849 10.2587 5.25581C9.55183 4.86312 8.75861 4.65196 7.9501 4.64125V4.64125Z" stroke="black" stroke-miterlimit="10"/>
</svg>
