<svg width="34" height="40" viewBox="0 0 34 40" fill="none" xmlns="http://www.w3.org/2000/svg">
<path fill-rule="evenodd" clip-rule="evenodd" d="M0 0C0 12.48 0 24.9599 0 37.4398H18.6004C18.3921 37.1467 18.1963 36.8446 18.0243 36.5266H0.913166V0.913166H27.395V23.6487C27.7051 23.7054 28.0101 23.7762 28.3081 23.8645V0H0Z" fill="#1C8EAC"/>
<path fill-rule="evenodd" clip-rule="evenodd" d="M6.92236 21.8299C6.92236 22.134 6.92236 22.4381 6.92236 22.7422H21.3859V21.8299H6.92236Z" fill="#1C8EAC"/>
<path fill-rule="evenodd" clip-rule="evenodd" d="M6.92236 25.3965C6.92236 25.7006 6.92236 26.0047 6.92236 26.3088H19.3562C19.6634 25.9804 19.9933 25.6752 20.3469 25.3965H6.92236Z" fill="#1C8EAC"/>
<path fill-rule="evenodd" clip-rule="evenodd" d="M6.92236 28.9626C6.92236 29.2668 6.92236 29.5708 6.92236 29.8749H17.3203C17.4108 29.5639 17.5141 29.2586 17.6369 28.9626H6.92236Z" fill="#1C8EAC"/>
<path d="M25.801 24.6715C24.7945 24.6715 23.7979 24.8698 22.8681 25.255C21.9382 25.6402 21.0933 26.2048 20.3817 26.9166C19.67 27.6283 19.1055 28.4732 18.7204 29.4031C18.3353 30.3331 18.1371 31.3297 18.1372 32.3362C18.1373 34.3688 18.9447 36.318 20.382 37.7553C21.8192 39.1925 23.7685 39.9999 25.801 40C27.8336 39.9999 29.7829 39.1925 31.2201 37.7553C32.6573 36.318 33.4648 34.3688 33.4648 32.3362C33.4649 31.3298 33.2667 30.3331 32.8816 29.4032C32.4965 28.4733 31.9321 27.6283 31.2204 26.9166C30.5087 26.2048 29.6639 25.6403 28.734 25.2551C27.8042 24.8698 26.8075 24.6715 25.801 24.6715ZM24.2494 29.5967H27.3527V31.1645H28.5405V35.0757H23.0615V31.1645H24.2494V29.5967ZM25.0047 30.3521V31.1645H26.5974V30.3521H25.0047Z" fill="#1C8EAC"/>
<path d="M14.1529 7.54913L8.97803 10.138V16.6032L14.1529 19.192L19.3278 16.6032V10.138L14.1529 7.54913ZM14.1529 9.90966L15.7893 10.7283V12.4726C15.2438 12.7453 14.6981 13.0176 14.1529 13.2912L12.5165 12.4726V10.7283L14.1529 9.90966ZM14.1529 10.9307L13.4297 11.2928V11.9081L14.1529 12.2702L14.8762 11.9081V11.2928L14.1529 10.9307ZM11.3368 13.3706H12.2499V14.8589L14.1529 15.8105L16.056 14.8589V13.3706H16.9691V15.4234L14.1529 16.8315L11.3368 15.4234V13.3706Z" fill="#1C8EAC"/>
</svg>
