<svg width="40" height="40" viewBox="0 0 40 40" fill="none" xmlns="http://www.w3.org/2000/svg">
<path d="M29.8752 13.4731L20.3507 8.82683C20.2414 8.7737 20.1215 8.7461 20 8.7461C19.8785 8.7461 19.7586 8.7737 19.6493 8.82683L10.1246 13.4731C9.97522 13.5459 9.85226 13.6635 9.77277 13.8094C9.69328 13.9553 9.66121 14.1223 9.68101 14.2873L10.3787 20.1081C11.3164 27.9327 17.5332 30.7965 19.8496 31.2396C19.949 31.2587 20.051 31.2587 20.1504 31.2396C22.4666 30.7965 28.6834 27.9323 29.6211 20.1081L30.3188 14.2873C30.3386 14.1224 30.3065 13.9553 30.227 13.8094C30.1476 13.6635 30.0246 13.5459 29.8752 13.4731ZM28.0326 19.918C27.229 26.6237 22.1027 29.1632 20 29.6367C17.8973 29.1632 12.7708 26.6237 11.9672 19.918L11.3372 14.6619L20 10.4362L28.6626 14.6619L28.0326 19.918ZM18.5697 21.8351L24.1103 16.2947C24.2602 16.1447 24.4637 16.0603 24.6759 16.0603C24.888 16.0603 25.0915 16.1445 25.2416 16.2945C25.3916 16.4445 25.4759 16.6479 25.476 16.8601C25.476 17.0723 25.3918 17.2757 25.2418 17.4258L19.1354 23.5321C19.0611 23.6064 18.9729 23.6654 18.8759 23.7056C18.7788 23.7458 18.6747 23.7665 18.5697 23.7665C18.4646 23.7665 18.3606 23.7458 18.2635 23.7056C18.1664 23.6654 18.0782 23.6064 18.0039 23.5321L14.758 20.2865C14.6838 20.2122 14.6249 20.124 14.5847 20.0269C14.5445 19.9299 14.5238 19.8258 14.5238 19.7208C14.5239 19.6157 14.5446 19.5117 14.5848 19.4147C14.625 19.3176 14.684 19.2294 14.7583 19.1552C14.8325 19.0809 14.9207 19.022 15.0178 18.9818C15.1149 18.9416 15.2189 18.921 15.3239 18.921C15.429 18.921 15.533 18.9417 15.6301 18.9819C15.7271 19.0222 15.8153 19.0811 15.8895 19.1554L18.5697 21.8351ZM38.6385 17.3129L37.456 16.4453C37.1364 16.2135 36.9063 15.8788 36.8042 15.4975C36.702 15.1162 36.734 14.7113 36.8948 14.3507L37.485 13.0083C37.6957 12.5292 37.7906 12.0072 37.762 11.4846C37.7334 10.962 37.5822 10.4535 37.3205 10.0003C37.0588 9.54701 36.694 9.16176 36.2558 8.87571C35.8175 8.58965 35.318 8.41084 34.7978 8.35374L33.3399 8.19358C32.9472 8.15242 32.5806 7.97764 32.3014 7.6985C32.0223 7.41936 31.8474 7.0528 31.8062 6.66016L31.6463 5.20226C31.5892 4.68201 31.4104 4.18252 31.1243 3.74424C30.8383 3.30596 30.453 2.94122 29.9998 2.67955C29.5465 2.41788 29.038 2.26664 28.5154 2.23809C27.9928 2.20954 27.4708 2.30447 26.9918 2.51519L25.6495 3.10547C25.2889 3.26598 24.8841 3.29782 24.5028 3.19567C24.1215 3.09352 23.7868 2.86358 23.5547 2.54427L22.6873 1.36155C22.3777 0.939531 21.9731 0.596354 21.5062 0.359809C21.0393 0.123264 20.5233 0 19.9999 0C19.4765 0 18.9605 0.123264 18.4936 0.359809C18.0267 0.596354 17.6221 0.939531 17.3125 1.36155L16.4453 2.54427C16.2131 2.86336 15.8784 3.09314 15.4971 3.19527C15.1159 3.2974 14.7112 3.2657 14.3505 3.10547L13.0081 2.51519C12.529 2.30447 12.007 2.20954 11.4844 2.23809C10.9618 2.26664 10.4533 2.41788 10.0001 2.67955C9.5468 2.94122 9.16154 3.30596 8.87548 3.74424C8.58943 4.18252 8.41062 4.68201 8.35354 5.20226L8.1936 6.66016C8.15237 7.05283 7.97751 7.41941 7.69829 7.69856C7.41906 7.9777 7.05243 8.15246 6.65975 8.19358L5.20228 8.35374C4.68201 8.4108 4.1825 8.58958 3.74419 8.87562C3.30588 9.16166 2.9411 9.54691 2.67938 10.0002C2.41767 10.4534 2.26639 10.9619 2.23779 11.4845C2.20919 12.0071 2.30407 12.5291 2.51476 13.0083L3.10525 14.3507C3.26596 14.7113 3.29789 15.1162 3.19568 15.4975C3.09347 15.8788 2.86334 16.2135 2.54384 16.4453L1.36155 17.3129C0.939553 17.6225 0.596387 18.027 0.359842 18.4938C0.123296 18.9607 2.0777e-05 19.4766 2.62612e-09 20C-2.07718e-05 20.5233 0.123213 21.0393 0.359722 21.5061C0.596231 21.973 0.939364 22.3775 1.36133 22.6871L2.54384 23.5547C2.86336 23.7866 3.09348 24.1212 3.19565 24.5026C3.29782 24.8839 3.26583 25.2888 3.10504 25.6493L2.51476 26.9918C2.30408 27.4709 2.2092 27.9928 2.23779 28.5154C2.26638 29.038 2.41764 29.5465 2.67933 29.9998C2.94101 30.453 3.30576 30.8383 3.74404 31.1243C4.18231 31.4104 4.6818 31.5892 5.20204 31.6463L6.65994 31.8064C7.05258 31.8476 7.41917 32.0224 7.69835 32.3015C7.97753 32.5807 8.15236 32.9472 8.19358 33.3399L8.35352 34.7978C8.4106 35.318 8.58941 35.8175 8.87546 36.2558C9.16152 36.6941 9.54677 37.0588 10 37.3205C10.4533 37.5821 10.9618 37.7334 11.4844 37.7619C12.007 37.7905 12.529 37.6956 13.008 37.4848L14.3505 36.8946C14.7111 36.7342 15.1158 36.7025 15.4971 36.8046C15.8783 36.9068 16.2129 37.1366 16.4451 37.4558L17.3127 38.6385C17.6223 39.0605 18.0269 39.4037 18.4937 39.6402C18.9606 39.8768 19.4766 40 20 40C20.5234 40 21.0394 39.8768 21.5063 39.6402C21.9731 39.4037 22.3777 39.0605 22.6873 38.6385L23.5545 37.4558C23.7868 37.1367 24.1215 36.9069 24.5028 36.8048C24.8841 36.7027 25.2888 36.7343 25.6495 36.8946L26.9918 37.4848C27.4708 37.6956 27.9928 37.7905 28.5154 37.7619C29.038 37.7334 29.5465 37.5821 29.9998 37.3205C30.453 37.0588 30.8383 36.6941 31.1243 36.2558C31.4104 35.8175 31.5892 35.318 31.6463 34.7978L31.8062 33.3399C31.8474 32.9472 32.0223 32.5806 32.3015 32.3015C32.5808 32.0223 32.9474 31.8476 33.3401 31.8064L34.7975 31.6463C35.3178 31.5892 35.8173 31.4104 36.2556 31.1244C36.6939 30.8384 37.0587 30.4531 37.3204 29.9999C37.5821 29.5466 37.7334 29.0381 37.762 28.5155C37.7906 27.9929 37.6957 27.4709 37.485 26.9918L36.8946 25.6493C36.7339 25.2887 36.7019 24.8839 36.8041 24.5025C36.9063 24.1212 37.1365 23.7866 37.456 23.5547L38.6382 22.6871C39.0603 22.3776 39.4035 21.9731 39.6401 21.5062C39.8767 21.0394 40 20.5234 40 20.0001C40 19.4767 39.8768 18.9607 39.6402 18.4939C39.4037 18.027 39.0605 17.6225 38.6385 17.3129ZM37.6919 21.3972L36.5094 22.2648C35.8949 22.7109 35.4524 23.3545 35.2559 24.0879C35.0594 24.8213 35.1209 25.5999 35.4299 26.2934L36.0202 27.6359C36.1298 27.885 36.1792 28.1564 36.1643 28.4281C36.1495 28.6999 36.0708 28.9643 35.9348 29.2C35.7987 29.4357 35.609 29.636 35.3811 29.7847C35.1532 29.9334 34.8934 30.0264 34.6229 30.056L33.1654 30.2162C32.4102 30.2952 31.7051 30.6313 31.1682 31.1682C30.6312 31.7051 30.2951 32.4102 30.216 33.1654L30.056 34.6233C30.0264 34.8938 29.9334 35.1535 29.7847 35.3814C29.6359 35.6093 29.4356 35.799 29.1999 35.935C28.9642 36.0711 28.6998 36.1497 28.4281 36.1646C28.1564 36.1794 27.885 36.13 27.6359 36.0204L26.2936 35.4301C25.6 35.1212 24.8213 35.0598 24.0878 35.2563C23.3544 35.4528 22.7106 35.8952 22.2644 36.5096L21.3972 37.6923C21.2361 37.9116 21.0258 38.0899 20.783 38.2128C20.5403 38.3357 20.2721 38.3998 20 38.3998C19.728 38.3998 19.4597 38.3357 19.217 38.2128C18.9743 38.0899 18.7639 37.9116 18.6029 37.6923L17.7353 36.5096C17.4283 36.087 17.0257 35.7429 16.5604 35.5056C16.0951 35.2682 15.5803 35.1442 15.058 35.1437C14.5924 35.1443 14.1321 35.2419 13.7064 35.4301L12.3639 36.0204C12.1148 36.13 11.8434 36.1793 11.5717 36.1645C11.3 36.1496 11.0356 36.071 10.7999 35.9349C10.5643 35.7989 10.364 35.6092 10.2152 35.3814C10.0665 35.1535 9.97349 34.8938 9.9438 34.6233L9.78386 33.1654C9.70478 32.4102 9.36865 31.7052 8.83175 31.1683C8.29485 30.6314 7.5898 30.2952 6.83464 30.2162L5.37674 30.056C5.10623 30.0264 4.8465 29.9334 4.61861 29.7847C4.39071 29.6359 4.20105 29.4356 4.065 29.1999C3.92894 28.9643 3.85031 28.6998 3.83547 28.4281C3.82063 28.1564 3.87001 27.885 3.9796 27.6359L4.56966 26.2934C4.87882 25.6 4.94032 24.8213 4.74385 24.0879C4.54738 23.3545 4.10488 22.7108 3.49046 22.2648L2.30773 21.3972C2.08835 21.2362 1.90997 21.0258 1.78703 20.7831C1.66408 20.5403 1.60002 20.2721 1.60004 20C1.60007 19.7279 1.66416 19.4596 1.78715 19.2169C1.91013 18.9742 2.08855 18.7638 2.30794 18.6029L3.49046 17.7353C4.10486 17.2892 4.54737 16.6456 4.74387 15.9122C4.94038 15.1788 4.87895 14.4001 4.56988 13.7066L3.9796 12.3642C3.87 12.1151 3.82063 11.8436 3.83547 11.5719C3.85031 11.3001 3.92896 11.0357 4.06504 10.8C4.20112 10.5643 4.39081 10.364 4.61873 10.2153C4.84665 10.0666 5.1064 9.97365 5.37694 9.94403L6.8344 9.78387C7.5896 9.70483 8.29471 9.36872 8.83165 8.83182C9.36858 8.29492 9.70475 7.58984 9.78384 6.83465L9.94378 5.37675C9.97348 5.10625 10.0665 4.84655 10.2152 4.61867C10.3639 4.3908 10.5643 4.20115 10.7999 4.0651C11.0356 3.92905 11.3 3.85041 11.5717 3.83556C11.8434 3.82071 12.1148 3.87006 12.3639 3.97961L13.7064 4.56989C14.3999 4.8791 15.1787 4.94059 15.9122 4.74408C16.6457 4.54757 17.2894 4.10499 17.7355 3.49047L18.6027 2.30773C18.7637 2.08843 18.9741 1.91011 19.2168 1.78721C19.4596 1.66431 19.7278 1.60026 19.9999 1.60026C20.272 1.60026 20.5403 1.66431 20.783 1.78721C21.0257 1.91011 21.2361 2.08843 21.3972 2.30773L22.2646 3.49046C22.7109 4.10471 23.3546 4.54707 24.088 4.74356C24.8214 4.94004 25.6 4.87873 26.2936 4.56988L27.6359 3.9796C27.885 3.87001 28.1564 3.82064 28.4281 3.83547C28.6998 3.85031 28.9642 3.92894 29.1999 4.065C29.4356 4.20106 29.6359 4.39071 29.7847 4.61861C29.9334 4.8465 30.0264 5.10623 30.056 5.37674L30.216 6.83464C30.295 7.5898 30.6312 8.29486 31.1681 8.83175C31.705 9.36865 32.41 9.70478 33.1652 9.78386L34.6231 9.94402C34.8936 9.97368 35.1533 10.0666 35.3812 10.2154C35.6091 10.3641 35.7988 10.5644 35.9348 10.8001C36.0709 11.0358 36.1495 11.3002 36.1643 11.5719C36.1792 11.8437 36.1298 12.1151 36.0202 12.3642L35.4301 13.7066C35.121 14.4001 35.0595 15.1787 35.256 15.9121C35.4524 16.6456 35.8949 17.2892 36.5094 17.7353L37.6921 18.6029C37.9115 18.7638 38.0899 18.9742 38.2129 19.2169C38.3359 19.4597 38.4 19.728 38.4 20.0001C38.4 20.2722 38.3358 20.5405 38.2128 20.7832C38.0898 21.0259 37.9113 21.2363 37.6919 21.3972Z" fill="#1C8EAC"/>
</svg>
