<svg width="42" height="40" viewBox="0 0 42 40" fill="none" xmlns="http://www.w3.org/2000/svg">
<path d="M1.40719 17.3315C1.48395 17.3315 1.56123 17.3152 1.63484 17.2795L3.46552 16.3988C3.72734 16.2732 3.83722 15.9588 3.71157 15.6969C3.58539 15.4362 3.27151 15.3257 3.00969 15.4509L2.26417 15.8094C4.61376 7.09769 12.4754 1.05151 21.5483 1.05151C30.7769 1.05151 38.7563 7.30536 40.9529 16.259C41.0118 16.4987 41.2268 16.6596 41.4629 16.6596C41.5044 16.6596 41.5465 16.6549 41.5885 16.6449C41.8703 16.5755 42.0433 16.2905 41.9739 16.0087C39.6627 6.58297 31.2632 0 21.5483 0C12.0579 0 3.82566 6.28434 1.2952 15.362L0.999202 14.7469C0.873546 14.4851 0.559145 14.3752 0.297845 14.5008C0.0360193 14.627 -0.0738634 14.9414 0.0523177 15.2027L0.933482 17.0329C1.02339 17.2221 1.21161 17.3315 1.40719 17.3315Z" fill="#1C8EAC"/>
<path d="M40.8868 22.8494C40.7402 22.5987 40.4173 22.514 40.1671 22.6623L38.4142 23.6896C38.164 23.8363 38.0798 24.1586 38.2265 24.4088C38.3732 24.6591 38.6955 24.7432 38.9463 24.596L39.7381 24.1318C37.4074 32.874 29.5284 38.9486 20.4381 38.9486C11.219 38.9486 3.24123 32.7031 1.03832 23.7611C0.968921 23.4788 0.684488 23.3053 0.402158 23.3768C0.120353 23.4462 -0.0520941 23.7311 0.0173055 24.0129C2.33641 33.426 10.7338 40.0001 20.4381 40.0001C29.9354 40.0001 38.1771 33.7015 40.6986 24.6091L41.0067 25.1349C41.1045 25.3016 41.2806 25.3946 41.461 25.3946C41.5514 25.3946 41.6429 25.3715 41.7265 25.3221C41.9767 25.1754 42.0609 24.8531 41.9142 24.6028L40.8868 22.8494Z" fill="#1C8EAC"/>
</svg>
