<svg width="66" height="40" viewBox="0 0 66 40" fill="none" xmlns="http://www.w3.org/2000/svg">
<path d="M58.7368 9.71578C58.2243 9.12486 57.4826 8.78589 56.7015 8.78589H45.9283V2.86908C45.9283 1.28718 44.6392 0 43.0546 0H12.7682C11.1862 0 9.89907 1.28718 9.89907 2.86908V4.70222H5.00501C4.72861 4.70222 4.50451 4.92632 4.50451 5.20272C4.50451 5.47912 4.72861 5.70322 5.00501 5.70322H9.89907V9.81256H3.50351C3.22711 9.81256 3.00301 10.0367 3.00301 10.3131C3.00301 10.5895 3.22711 10.8136 3.50351 10.8136H9.89907V14.9229H2.50251C2.22611 14.9229 2.002 15.147 2.002 15.4234C2.002 15.6998 2.22611 15.9239 2.50251 15.9239H9.89907V20.0335H0.500501C0.224101 20.0335 0 20.2576 0 20.534C0 20.8104 0.224101 21.0345 0.500501 21.0345H9.89907V31.5905C9.89907 33.1724 11.1862 34.4595 12.7682 34.4595H17.5595C17.8147 37.5565 20.4122 40 23.5741 40C26.7358 40 29.3333 37.5565 29.5886 34.4595H43.0546H48.981C49.2363 37.5565 51.8338 40 54.9955 40C58.1572 40 60.7547 37.5565 61.0099 34.4595H63.0912C64.1797 34.4595 65.0651 33.5739 65.0651 32.4854V18.072C65.0651 17.4095 64.8261 16.7682 64.3926 16.267L58.7368 9.71578ZM23.5741 38.999C20.7957 38.999 18.5352 36.7387 18.5352 33.9603C18.5352 31.1818 20.7957 28.9213 23.5741 28.9213C26.3526 28.9213 28.6129 31.1818 28.6129 33.9603C28.6129 36.7387 26.3526 38.999 23.5741 38.999ZM44.9273 31.5905C44.9273 32.6205 44.0871 33.4585 43.0546 33.4585H29.5885C29.332 30.3625 26.7351 27.9203 23.5741 27.9203C20.413 27.9203 17.816 30.3625 17.5596 33.4585H12.7682C11.7381 33.4585 10.9001 32.6205 10.9001 31.5905V25.679H44.9273V31.5905ZM44.9273 24.678H10.9001V21.0345H15.3054C15.5818 21.0345 15.8059 20.8104 15.8059 20.534C15.8059 20.2576 15.5818 20.0335 15.3054 20.0335H10.9001V15.9239H18.8089C19.0853 15.9239 19.3094 15.6998 19.3094 15.4234C19.3094 15.147 19.0853 14.9229 18.8089 14.9229H10.9001V10.8136H22.3124C22.5888 10.8136 22.8129 10.5895 22.8129 10.3131C22.8129 10.0367 22.5888 9.81256 22.3124 9.81256H10.9001V5.70322H30.8209C31.0973 5.70322 31.3214 5.47912 31.3214 5.20272C31.3214 4.92632 31.0973 4.70222 30.8209 4.70222H10.9001V2.86908C10.9001 1.839 11.7381 1.001 12.7682 1.001H43.0546C44.0871 1.001 44.9273 1.839 44.9273 2.86908V24.678ZM60.0342 33.9603C60.0342 36.7387 57.7739 38.999 54.9955 38.999C52.2194 38.999 49.9608 36.7423 49.9571 33.967C49.9572 33.9642 49.9587 33.9619 49.9587 33.959C49.9587 33.9564 49.9572 33.9542 49.9572 33.9516C49.9619 31.1772 52.22 28.9213 54.9955 28.9213C57.7733 28.9213 60.0331 31.1808 60.0341 33.9583C60.0341 33.9586 60.034 33.9588 60.034 33.959C60.034 33.9595 60.0342 33.9598 60.0342 33.9602V33.9603ZM64.0641 32.4854C64.0641 33.0221 63.6277 33.4585 63.0912 33.4585H61.0098C60.7534 30.3625 58.1564 27.9203 54.9955 27.9203C51.8346 27.9203 49.2376 30.3625 48.9812 33.4585H45.231C45.6644 32.956 45.9283 32.304 45.9283 31.5905V9.7869H56.7015C57.1923 9.7869 57.6583 10 57.9799 10.3707L59.7041 12.3678H51.4949C50.7102 12.3678 50.0716 13.0064 50.0716 13.7911V20.7009C50.0716 21.4856 50.7102 22.1242 51.4949 22.1242H64.0641V32.4854ZM64.0641 21.1232H51.4949C51.262 21.1232 51.0726 20.9338 51.0726 20.7009V13.7911C51.0726 13.5582 51.262 13.3689 51.4949 13.3689H60.5682L63.6352 16.9215C63.9119 17.2411 64.0641 17.6497 64.0641 18.072V21.1232Z" fill="#1C8EAC"/>
<path d="M54.9968 31.3414C53.5527 31.3414 52.3779 32.5162 52.3779 33.96C52.3779 35.4041 53.5527 36.5789 54.9968 36.5789C56.4408 36.5789 57.6156 35.4041 57.6156 33.96C57.6156 32.5162 56.4408 31.3414 54.9968 31.3414ZM54.9968 35.5778C54.1048 35.5778 53.3789 34.852 53.3789 33.96C53.3789 33.068 54.1048 32.3424 54.9968 32.3424C55.8888 32.3424 56.6146 33.068 56.6146 33.96C56.6146 34.852 55.8888 35.5778 54.9968 35.5778Z" fill="#1C8EAC"/>
<path d="M23.572 31.3414C22.1279 31.3414 20.9531 32.5162 20.9531 33.96C20.9531 35.4041 22.1279 36.5789 23.572 36.5789C25.0158 36.5789 26.1905 35.4041 26.1905 33.96C26.1905 32.5162 25.0158 31.3414 23.572 31.3414ZM23.572 35.5778C22.68 35.5778 21.9541 34.852 21.9541 33.96C21.9541 33.068 22.68 32.3424 23.572 32.3424C24.464 32.3424 25.1895 33.068 25.1895 33.96C25.1895 34.852 24.464 35.5778 23.572 35.5778Z" fill="#1C8EAC"/>
</svg>
