<svg width="39" height="10" viewBox="0 0 39 10" fill="none" xmlns="http://www.w3.org/2000/svg">
<path d="M8.26426 9.59791H10.1437V0.723389H8.26426V9.59791ZM20.1621 4.47345V3.68425H20.1301H18.4853H18.392V9.61133H20.1595V6.50552C20.1595 5.60626 21.1618 5.21434 21.8656 5.40224H21.8816V3.68425C21.1619 3.67083 20.506 3.98489 20.1621 4.47345ZM14.1186 8.2262C13.1962 8.2262 12.4604 7.51752 12.4604 6.63437C12.4604 5.75121 13.2122 5.04254 14.1186 5.04254C15.041 5.04254 15.7767 5.75121 15.7767 6.63437C15.7794 7.51752 15.0276 8.2262 14.1186 8.2262ZM15.7634 4.08153C15.2622 3.71914 14.6357 3.51513 13.9639 3.51513C12.2418 3.51513 10.8635 4.91906 10.8635 6.63705C10.8635 8.35505 12.2578 9.75897 13.9639 9.75897C14.6357 9.75897 15.2462 9.53885 15.7634 9.19257V9.60328H17.2963V3.67619H15.7634V4.08153ZM26.2964 3.51245C25.5926 3.51245 24.9181 3.73257 24.4809 4.33118V3.66814H24.4489H22.804H22.7107V9.59523H24.4782V6.34714C24.4782 5.44788 25.0727 5.00764 25.8085 5.00764C26.5763 5.00764 27.0295 5.48009 27.0295 6.33103V9.57912H28.7996V5.81295C28.8023 4.46003 27.7066 3.51245 26.2964 3.51245ZM37.7224 7.50142C37.1119 7.50142 36.6107 8.00608 36.6107 8.6208C36.6107 9.23552 37.1119 9.74018 37.7224 9.74018C38.3329 9.74018 38.834 9.23552 38.834 8.6208C38.834 7.98997 38.3329 7.50142 37.7224 7.50142ZM32.6678 8.2262C31.7454 8.2262 31.0097 7.51752 31.0097 6.63437C31.0097 5.75121 31.7614 5.04254 32.6678 5.04254C33.5902 5.04254 34.326 5.75121 34.326 6.63437C34.342 7.51752 33.5902 8.2262 32.6678 8.2262ZM34.326 4.08153C33.8248 3.71914 33.1984 3.51513 32.5265 3.51513C30.8044 3.51513 29.4261 4.91906 29.4261 6.63705C29.4261 8.35505 30.8204 9.75897 32.5265 9.75897C33.1984 9.75897 33.8088 9.53885 34.326 9.19257V9.60328H35.8589V3.67619H34.326V4.08153ZM36.9733 3.78088H37.0506C37.0986 3.78088 37.1279 3.8131 37.1279 3.84262C37.1279 3.89094 37.1119 3.90705 37.0506 3.90705H36.9733V3.78088ZM36.9733 3.9849H37.0506L37.1279 4.15938H37.2052L37.1279 3.9849C37.1759 3.96879 37.2052 3.92316 37.2052 3.85873C37.2052 3.78089 37.1412 3.71646 37.0479 3.71646H36.8906V4.1567H36.9679L36.9733 3.9849ZM0 9.59791H1.95677V0.723389H0V9.59791ZM6.98197 0.723389H5.08919C5.0572 2.72593 3.9002 4.46003 2.23935 5.31097L5.1665 9.59791H7.54447L4.88391 5.70558C6.1982 4.3956 6.94998 2.62929 6.98197 0.723389ZM37.0346 3.59298C37.2212 3.59298 37.3785 3.75136 37.3785 3.93926C37.3785 4.12717 37.2212 4.28554 37.0346 4.28554C36.848 4.28554 36.6907 4.12717 36.6907 3.93926C36.6907 3.75136 36.848 3.59298 37.0346 3.59298ZM37.0346 4.36339C37.2692 4.36339 37.4584 4.17549 37.4584 3.93658C37.4584 3.69767 37.2718 3.50976 37.0346 3.50976C36.8 3.50976 36.6107 3.69767 36.6107 3.93658C36.6107 4.17549 36.8 4.36339 37.0346 4.36339Z" fill="black"/>
</svg>
