<svg width="33" height="20" viewBox="0 0 33 20" fill="none" xmlns="http://www.w3.org/2000/svg">
<path d="M32.8002 18.9C32.8002 19.5 32.3002 20 31.7002 20H1.8002C1.2002 20 0.700195 19.5 0.700195 18.9V1.1C0.700195 0.5 1.2002 0 1.8002 0H31.7002C32.3002 0 32.8002 0.5 32.8002 1.1V18.9Z" fill="#F9F9F9"/>
<path d="M20.6004 15.7H20.9004H21.2004H21.5004L21.8004 15.6H22.0004L22.3004 15.5L22.6004 15.4L22.8004 15.3L23.1004 15.2L23.3004 15L23.6004 14.9L23.8004 14.8L24.0004 14.6L24.3004 14.4L24.5004 14.2L24.7004 14.1L24.9004 13.9L25.0004 13.6L25.2004 13.4L25.4004 13.2L25.5004 13L25.7004 12.7L25.8004 12.5L25.9004 12.2L26.0004 12L26.1004 11.7L26.2004 11.4V11.1L26.3004 10.9V10.6V10.3V10V9.70005V9.40005V9.10005L26.2004 8.80005V8.60005L26.1004 8.30005L26.0004 8.00005L25.9004 7.80005L25.8004 7.50005L25.7004 7.30005L25.5004 7.00005L25.4004 6.80005L25.2004 6.60005L25.0004 6.30005L24.9004 6.10005L24.7004 5.90005L24.5004 5.70005L24.3004 5.60005L24.0004 5.40005L23.8004 5.20005L23.6004 5.10005L23.3004 5.00005L23.1004 4.80005L22.8004 4.70005L22.6004 4.60005L22.3004 4.50005L22.0004 4.40005H21.8004L21.5004 4.30005H21.2004H20.9004H20.6004H20.3004H20.0004H19.7004L19.4004 4.40005H19.2004L18.9004 4.50005L18.6004 4.60005L18.4004 4.70005L18.1004 4.80005L17.9004 5.00005L17.6004 5.10005L17.4004 5.20005L17.2004 5.40005L16.9004 5.60005L16.7004 5.70005L16.5004 5.90005L16.3004 6.10005L16.2004 6.30005L16.0004 6.60005L15.8004 6.80005L15.7004 7.00005L15.5004 7.30005L15.4004 7.50005L15.3004 7.80005L15.2004 8.00005L15.1004 8.30005L15.0004 8.60005V8.80005L14.9004 9.10005V9.40005V9.70005V10V10.3V10.6V10.9L15.0004 11.1V11.4L15.1004 11.7L15.2004 12L15.3004 12.2L15.4004 12.5L15.5004 12.7L15.7004 13L15.8004 13.2L16.0004 13.4L16.2004 13.6L16.3004 13.9L16.5004 14.1L16.7004 14.2L16.9004 14.4L17.2004 14.6L17.4004 14.8L17.6004 14.9L17.9004 15L18.1004 15.2L18.4004 15.3L18.6004 15.4L18.9004 15.5L19.2004 15.6H19.4004L19.7004 15.7H20.0004H20.3004H20.6004Z" fill="#EC1C2E"/>
<path d="M13.0002 15.7H13.3002H13.6002H13.9002L14.1002 15.6H14.4002L14.7002 15.5L15.0002 15.4L15.2002 15.3L15.5002 15.2L15.7002 15L16.0002 14.9L16.2002 14.8L16.4002 14.6L16.6002 14.4L16.8002 14.2L17.0002 14.1L17.2002 13.9L17.4002 13.6L17.6002 13.4L17.7002 13.2L17.9002 13L18.0002 12.7L18.2002 12.5L18.3002 12.2L18.4002 12L18.5002 11.7V11.4L18.6002 11.1L18.7002 10.9V10.6V10.3V10V9.70005V9.40005V9.10005L18.6002 8.80005L18.5002 8.60005V8.30005L18.4002 8.00005L18.3002 7.80005L18.2002 7.50005L18.0002 7.30005L17.9002 7.00005L17.7002 6.80005L17.6002 6.60005L17.4002 6.30005L17.2002 6.10005L17.0002 5.90005L16.8002 5.70005L16.6002 5.60005L16.4002 5.40005L16.2002 5.20005L16.0002 5.10005L15.7002 5.00005L15.5002 4.80005L15.2002 4.70005L15.0002 4.60005L14.7002 4.50005L14.4002 4.40005H14.1002L13.9002 4.30005H13.6002H13.3002H13.0002H12.7002H12.4002H12.1002L11.8002 4.40005H11.5002L11.3002 4.50005L11.0002 4.60005L10.7002 4.70005L10.5002 4.80005L10.2002 5.00005L10.0002 5.10005L9.8002 5.20005L9.5002 5.40005L9.3002 5.60005L9.1002 5.70005L8.90019 5.90005L8.7002 6.10005L8.5002 6.30005L8.40019 6.60005L8.2002 6.80005L8.1002 7.00005L7.90019 7.30005L7.8002 7.50005L7.7002 7.80005L7.6002 8.00005L7.5002 8.30005L7.40019 8.60005L7.3002 8.80005V9.10005V9.40005L7.2002 9.70005V10V10.3L7.3002 10.6V10.9V11.1L7.40019 11.4L7.5002 11.7L7.6002 12L7.7002 12.2L7.8002 12.5L7.90019 12.7L8.1002 13L8.2002 13.2L8.40019 13.4L8.5002 13.6L8.7002 13.9L8.90019 14.1L9.1002 14.2L9.3002 14.4L9.5002 14.6L9.8002 14.8L10.0002 14.9L10.2002 15L10.5002 15.2L10.7002 15.3L11.0002 15.4L11.3002 15.5L11.5002 15.6H11.8002L12.1002 15.7H12.4002H12.7002H13.0002Z" fill="#0084C4"/>
<path d="M16.1001 6.4001H19.0001V6.1001H16.4001L16.1001 6.4001Z" fill="#EC1C2E"/>
<path d="M15.6001 7.10005H19.0001V6.80005H15.8001L15.6001 7.10005Z" fill="#EC1C2E"/>
<path d="M15.3003 7.8H19.0003V7.5H15.4003L15.3003 7.8Z" fill="#EC1C2E"/>
<path d="M15.1001 8.49995H19.0001V8.19995H15.2001L15.1001 8.49995Z" fill="#EC1C2E"/>
<path d="M14.9004 9.20015H19.0004V8.90015H15.0004L14.9004 9.20015Z" fill="#EC1C2E"/>
<path d="M14.9004 10.5H19.0004V10.2H14.9004V10.5Z" fill="#EC1C2E"/>
<path d="M15.0004 11.2001H19.0004V10.9001H14.9004L15.0004 11.2001Z" fill="#EC1C2E"/>
<path d="M15.2001 11.8H19.0001V11.5H15.1001L15.2001 11.8Z" fill="#EC1C2E"/>
<path d="M15.5003 12.5H19.0003V12.2H15.3003L15.5003 12.5Z" fill="#EC1C2E"/>
<path d="M15.9002 13.2001H19.0002V12.9001H15.7002L15.9002 13.2001Z" fill="#EC1C2E"/>
<path d="M16.4001 13.9001H19.0001V13.6001H16.1001L16.4001 13.9001Z" fill="#EC1C2E"/>
<path d="M25.4004 13.5V13.4H25.5004V13.3H25.6004H25.7004H25.8004L25.9004 13.4V13.5H26.0004H25.9004V13.4H25.8004L25.7004 13.3H25.6004V13.4H25.5004V13.5H25.4004Z" fill="#EC1C2E"/>
<path d="M25.6006 13.5001V13.4001H25.7006V13.5001H25.8006H25.7006H25.6006Z" fill="#EC1C2E"/>
<path d="M25.4004 13.6V13.5H25.5004V13.6H25.4004Z" fill="#EC1C2E"/>
<path d="M25.6006 13.6V13.5V13.6H25.7006V13.5H25.8006V13.6H25.6006Z" fill="#EC1C2E"/>
<path d="M25.9004 13.6V13.5H26.0004V13.6H25.9004Z" fill="#EC1C2E"/>
<path d="M25.4004 13.6001V13.7001L25.5004 13.8001H25.6004H25.7004H25.8004H25.9004V13.7001L26.0004 13.6001H25.9004V13.7001H25.8004V13.8001H25.7004H25.6004H25.5004V13.7001V13.6001H25.4004Z" fill="#EC1C2E"/>
<path d="M25.6006 13.6001V13.7001V13.6001H25.7006V13.7001H25.8006L25.7006 13.6001H25.8006H25.6006Z" fill="#EC1C2E"/>
<path d="M19.3001 9.50005H19.2001H19.1001H19.0001H18.9001H18.8001H18.7001H18.6001H18.5001H18.4001V9.60005H18.3001V9.70005V9.80005V9.90005H18.4001L18.5001 10H18.6001L18.7001 10.1H18.8001H18.9001L19.0001 10.2L19.1001 10.3H19.2001V10.4L19.3001 10.5V10.6V10.8V11V11.1V11.2L19.2001 11.3V11.4L19.1001 11.5H19.0001V11.6H18.9001L18.8001 11.7H18.7001H18.6001L18.5001 11.8H18.4001H18.3001H18.2001H18.0001H17.9001H17.8001H17.7001H17.6001H17.5001H17.4001L17.3001 11.7H17.2001H17.1001L17.2001 11.1H17.3001H17.4001H17.5001L17.6001 11.2H17.7001H17.8001H17.9001H18.0001H18.1001H18.2001H18.3001L18.4001 11.1V11H18.5001V10.9V10.8H18.4001V10.7H18.3001V10.6H18.2001H18.1001L18.0001 10.5H17.9001H17.8001V10.4H17.7001L17.6001 10.3L17.5001 10.2V10.1L17.4001 10V9.90005V9.80005V9.70005V9.60005L17.5001 9.50005V9.40005V9.30005H17.6001V9.20005V9.10005H17.7001L17.8001 9.00005H17.9001V8.90005H18.0001H18.1001H18.2001H18.3001L18.4001 8.80005H18.5001H18.6001H18.7001H18.8001H18.9001H19.0001H19.1001V8.90005H19.2001H19.3001H19.4001H19.5001L19.3001 9.50005Z" fill="white"/>
<path d="M20.0004 8.19995H20.7004L20.6004 8.89995H21.1004L21.0004 9.49995H20.5004L20.2004 11V11.1H20.3004V11.2H20.4004H20.5004H20.6004H20.7004H20.8004L20.7004 11.7H20.6004L20.5004 11.8H20.4004H20.3004H20.1004H20.0004H19.9004H19.8004L19.7004 11.7H19.6004L19.5004 11.6V11.5V11.4H19.4004L19.5004 11.3V11.2L20.0004 8.19995Z" fill="white"/>
<path d="M15.4001 10.5L15.3001 10.6L15.4001 10.7V10.8V10.9H15.5001V11L15.6001 11.1H15.7001L15.8001 11.2H15.9001H16.0001H16.1001H16.2001H16.3001H16.4001H16.5001H16.6001L16.7001 11.1H16.8001H16.9001V11H17.0001L16.9001 11.7H16.8001H16.7001L16.6001 11.8H16.5001H16.4001H16.3001H16.2001H16.1001H16.0001H15.9001H15.8001H15.7001H15.6001L15.5001 11.7H15.4001H15.3001L15.2001 11.6H15.1001L15.0001 11.5L14.9001 11.4L14.8001 11.3L14.7001 11.2V11.1L14.6001 11V10.9V10.8V10.7V10.6V10.5V10.4V10.3V10.2V10.1V10V9.90005H14.7001V9.80005V9.70005V9.60005H14.8001V9.50005V9.40005H14.9001V9.30005H15.0001V9.20005H15.1001V9.10005H15.2001L15.3001 9.00005H15.4001L15.5001 8.90005H15.6001H15.7001H15.8001H15.9001L16.0001 8.80005H16.1001H16.2001V8.90005H16.3001H16.4001H16.5001H16.6001L16.7001 9.00005H16.8001V9.10005H16.9001L17.0001 9.20005V9.30005H17.1001V9.40005V9.50005L17.2001 9.60005V9.70005V9.80005V9.90005V10V10.1V10.3L17.1001 10.4V10.5H15.1001L15.3001 10H16.4001V9.90005V9.80005V9.70005V9.60005H16.3001V9.50005H16.2001H16.1001V9.40005H16.0001L15.9001 9.50005H15.8001H15.7001V9.60005H15.6001V9.70005L15.5001 9.80005V9.90005V10L15.4001 10.5Z" fill="white"/>
<path d="M14.3003 11.2001L14.2003 11.8001H13.5003V11.7001V11.6001L13.6003 11.5001H13.5003V11.6001H13.4003L13.3003 11.7001H13.2003L13.1003 11.8001H13.0003H12.9003H12.8003H12.7003H12.6003H12.5003H12.4003H12.3003L12.2003 11.7001H12.1003V11.6001H12.0003V11.5001L11.9003 11.4001V11.3001V11.2001V11.1001L11.8003 11.0001L11.9003 10.9001V10.8001V10.7001V10.6001L12.0003 10.5001L12.1003 10.4001V10.3001H12.2003L12.3003 10.2001H12.4003L12.5003 10.1001L12.6003 10.0001H12.7003H12.8003H12.9003H13.0003H13.1003H13.2003H13.3003H13.4003H13.5003H13.6003H13.7003V9.90015H13.8003V9.80015V9.70015H13.7003V9.60015H13.6003V9.50015H13.5003H13.4003H13.3003H13.2003H13.1003H13.0003H12.9003H12.8003H12.7003L12.6003 9.60015H12.5003H12.4003H12.3003L12.5003 9.00015L12.6003 8.90015H12.7003H12.8003H12.9003H13.0003H13.1003H13.2003H13.3003H13.4003H13.5003H13.6003H13.7003H13.8003H13.9003H14.0003L14.1003 9.00015H14.2003H14.3003V9.10015L14.4003 9.20015H14.5003V9.30015L14.6003 9.40015V9.50015V9.60015V9.70015V9.80015L14.3003 11.2001Z" fill="white"/>
<path d="M13.7002 10.5001H13.6002V10.4001H13.5002H13.4002L13.3002 10.5001H13.2002H13.1002H13.0002V10.6001H12.9002L12.8002 10.7001L12.7002 10.8001V10.9001V11.0001V11.1001H12.8002V11.2001H12.9002H13.0002H13.1002H13.2002L13.3002 11.1001H13.4002L13.5002 11.0001V10.9001H13.6002V10.8001V10.7001V10.6001V10.5001H13.7002Z" fill="#0084C4"/>
<path d="M8.6004 11.8H7.90039L8.5004 8.19995H9.8004L9.90039 10.4L10.8004 8.19995H12.1004L11.5004 11.8H10.8004L11.2004 9.09995L10.1004 11.8H9.3004V11.7L9.20039 11.4V11V10.5V9.99995L9.1004 9.59995V9.29995V9.09995L8.6004 11.8Z" fill="white"/>
<path d="M20.9004 11.8001H21.7004L22.0004 10.3001V10.2001V10.1001V10.0001H22.1004V9.90015V9.80015H22.2004V9.70015H22.3004H22.4004L22.5004 9.60015H22.6004H22.7004H22.8004V9.50015L22.9004 9.40015V9.30015V9.20015L23.0004 9.10015V9.00015L23.1004 8.90015H23.0004H22.9004H22.8004H22.7004H22.6004V9.00015H22.5004L22.4004 9.10015H22.3004V9.20015H22.2004V9.30015L22.1004 9.40015L22.2004 8.90015H21.4004L20.9004 11.8001Z" fill="white"/>
<path d="M24.3002 8.90015H24.4002H24.5002H24.6002H24.7002H24.8002L24.9002 9.00015H25.0002L25.1002 9.10015H25.2002V9.20015H25.3002V9.30015H25.4002V9.40015H25.5002V9.50015L25.6002 9.60015V9.70015V9.80015V9.90015H25.7002V10.0001V10.1001V10.2001V10.3001V10.4001V10.5001V10.6001L25.6002 10.7001V10.8001V10.9001L25.5002 11.0001V11.1001L25.4002 11.2001V11.3001H25.3002V11.4001L25.2002 11.5001H25.1002V11.6001H25.0002L24.9002 11.7001H24.8002L24.7002 11.8001H24.6002H24.5002H24.4002H24.3002H24.2002H24.1002H24.0002H23.9002H23.8002H23.7002H23.6002L23.5002 11.7001H23.4002L23.3002 11.6001H23.2002L23.1002 11.5001L23.0002 11.4001V11.3001H22.9002V11.2001V11.1001H22.8002V11.0001V10.9001L22.7002 10.8001V10.7001V10.6001V10.5001V10.4001V10.3001V10.2001V10.1001L22.8002 10.0001V9.90015V9.80015L22.9002 9.70015V9.60015L23.0002 9.50015V9.40015H23.1002V9.30015H23.2002V9.20015H23.3002V9.10015H23.4002H23.5002V9.00015H23.6002H23.7002V8.90015H23.8002H23.9002H24.0002H24.1002H24.2002H24.3002Z" fill="white"/>
<path d="M25.4004 11.7H25.6004H25.5004V11.9V11.7H25.4004Z" fill="white"/>
<path d="M25.6001 11.7H25.7001L25.8001 11.8L25.9001 11.7V11.9V11.7L25.8001 11.9L25.7001 11.7V11.9H25.6001V11.7Z" fill="white"/>
<path d="M23.7001 10.3V10.4L23.6001 10.5L23.7001 10.6V10.7V10.8V10.9H23.8001V11H23.9001V11.1H24.0001H24.1001H24.2001H24.3001V11H24.4001L24.5001 10.9L24.6001 10.8V10.7L24.7001 10.6V10.5V10.4L24.8001 10.3V10.2V10.1V10V9.9L24.7001 9.8V9.7L24.6001 9.6L24.5001 9.5H24.4001H24.3001H24.2001H24.1001V9.6H24.0001L23.9001 9.7V9.8H23.8001V9.9L23.7001 10V10.1V10.2V10.3Z" fill="#EC1C2E"/>
</svg>
