<svg width="86" height="30" viewBox="0 0 86 30" fill="none" xmlns="http://www.w3.org/2000/svg">
<path d="M47.9998 11.5999C45.9998 11.4999 44.1998 12.9999 44.1998 14.8999C44.0998 16.7999 45.6998 18.3999 47.7998 18.4999C49.7998 18.5999 51.5998 17.0999 51.5998 15.1999C51.5998 13.2999 49.9998 11.6999 47.9998 11.5999Z" fill="#FAF9F7"/>
<path d="M30.7 12.5999C28.6 12.4999 26.8 13.9999 26.7 15.8999C26.6 17.7999 28.3 19.3999 30.4 19.4999C32.5 19.5999 34.3 18.0999 34.4 16.1999C34.5 14.2999 32.8 12.6999 30.7 12.5999Z" fill="#FAF9F7"/>
<path d="M82.2 14.7L84.2 12.9C84.2 12.9 80.2 4.1 73.8 5C73.4 5 73 5.1 72.7 5.2C72.6 4.8 72.5 4.5 72.3 4.1C71.2 1.5 68.9 -0.1 66.8 0.1C66.4 0.1 66.1 0.2 65.7 0.4C64.2 1 63.3 2.5 63.1 4.3L61.3 3.7V3.6L60.7 0L50.7 0.4L51.4 4.4C50.4 4 49.4 3.8 48.3 3.6C48 3.6 47.8 3.5 47.5 3.5C47.2 3.5 46.9 3.5 46.7 3.5C43.4 3.5 40.5 4.7 38.3 6.6C36.4 5.2 34.1 4.4 31.6 4.3C31.3 4.3 31.1 4.3 30.8 4.3C27.4 4.3 24.3 5.7 22 7.8L20 1.6L14.6 2.7L11.9 8.7L9.1 3.7L4.2 4.6L0 29.1C17.9 31.6 28.3 27.6 28.3 27.6C28.9 27.7 29.5 27.8 30 27.8C30.3 27.8 30.6 27.8 30.8 27.8C34.2 27.8 37.4 26.4 39.6 24.3C41.4 25.5 43.6 26.2 46 26.4C46.3 26.4 46.6 26.4 46.9 26.4C50 26.4 52.8 25.4 54.9 23.8L55.2 25.6C55.2 25.6 66 25.4 75.1 23.1C78.3 24.1 81.3 22.7 84.1 19.8C84.5 19.4 84.8 19 85.1 18.6L82.2 14.7ZM18.9 24.4L16.5 16.3L13.1 24.9L8.6 17L8 25.2L4 24.9L6.6 7.9L12.5 17.5L16.6 6.8L22.8 23.4L18.9 24.4ZM39.3 16.5C39 20.7 35 23.8 30.3 23.5C25.6 23.2 22 19.6 22.2 15.4C22.5 11.2 26.5 8.1 31.2 8.4C35.9 8.7 39.6 12.3 39.3 16.5ZM68 3.8C68.8 3.6 69.7 4.3 70 5.4C70.3 6.5 69.8 7.5 69 7.8C68.2 8 67.3 7.3 67 6.2C66.7 5.1 67.2 4 68 3.8ZM56.4 15.4C56.2 19.6 52.3 22.7 47.7 22.4C43.2 22.1 39.7 18.5 39.9 14.4C40.1 10.2 44 7.1 48.6 7.4C53.1 7.7 56.6 11.3 56.4 15.4ZM65.4 20.6L60.5 15.1L61.3 20.4L57.9 21L55.3 4L58.7 3.7L60.2 13.4L63.4 7.8L66.9 8.7L63.9 13.8L68.8 19.4L65.4 20.6ZM69.8 19.8L67.8 8.8L70.3 8.4L72.2 19.3L69.8 19.8ZM75.6 19.3C75.6 19.3 71.8 17.7 72.1 12.9C72.1 12.9 72.3 9.9 74.2 8.9C74.2 8.9 77.6 6.9 80.7 11.3L75.8 16.3C75.8 16.3 77.2 18.2 79.7 15.3L81.5 17.6C81.5 17.6 78.3 21.1 75.6 19.3Z" fill="#FAF9F7"/>
<path d="M74.6998 12.2C74.6998 12.2 74.0998 13.6 74.6998 14.4L77.4998 11.4C77.4998 11.4 75.8998 10.2 74.6998 12.2Z" fill="#FAF9F7"/>
<g opacity="0.1">
<path opacity="0.1" d="M47.6997 18.3999C45.9997 18.2999 44.5997 17.1999 44.1997 15.6999C44.2997 17.3999 45.7997 18.6999 47.6997 18.7999C49.6997 18.8999 51.3997 17.4999 51.4997 15.6999C51.4997 15.5999 51.4997 15.4999 51.4997 15.3999C51.2997 17.1999 49.6997 18.4999 47.6997 18.3999Z" fill="#020303"/>
<path opacity="0.1" d="M48.6001 7.39994C44.1001 7.09994 40.2001 10.1999 39.9001 14.3999C39.8001 15.2999 40.0001 16.0999 40.2001 16.8999C40.0001 16.2999 40.0001 15.5999 40.0001 14.9999C40.2001 10.9999 44.1001 8.09994 48.6001 8.29994C53.1001 8.59994 56.5001 11.9999 56.3001 15.9999C56.3001 16.0999 56.3001 16.1999 56.3001 16.2999C56.4001 15.9999 56.4001 15.6999 56.4001 15.3999C56.6001 11.2999 53.1001 7.69994 48.6001 7.39994Z" fill="#020303"/>
<path opacity="0.1" d="M3.8999 24.9999L4.4999 25.0999L7.1999 8.7999L6.5999 7.8999L3.8999 24.9999Z" fill="#020303"/>
<path opacity="0.1" d="M17.0001 7.8998L16.6001 6.7998L12.6001 17.2998L13.0001 17.8998L17.0001 7.8998Z" fill="#020303"/>
<path opacity="0.1" d="M16.6997 17.1998L18.8997 24.3998H19.1997L16.8997 16.7998L16.6997 17.1998Z" fill="#020303"/>
<path opacity="0.1" d="M9.1001 17.9L13.1001 24.9L13.3001 24.5L9.1001 17.5V17.9Z" fill="#020303"/>
<path opacity="0.1" d="M66.8998 8.7998L63.3998 7.89981L60.1998 13.4998L58.6998 3.7998L55.2998 4.0998L55.3998 5.1998L58.5998 4.8998L60.0998 14.0998L63.1998 8.7998L66.3998 9.5998L66.8998 8.7998Z" fill="#020303"/>
<path opacity="0.1" d="M63.6997 14.4999L68.3997 19.5999L68.7997 19.4999L63.9997 14.0999L63.6997 14.4999Z" fill="#020303"/>
<path opacity="0.1" d="M60.2998 15.7L61.0998 20.5H61.2998L60.5998 15.9L60.2998 15.7Z" fill="#020303"/>
<path opacity="0.1" d="M67.7998 8.7999L67.9998 9.5999L70.0998 9.2999L71.8998 19.3999H72.2998L70.3998 8.3999L67.7998 8.7999Z" fill="#020303"/>
<path opacity="0.1" d="M67.7999 4.89992C68.5999 4.69992 69.4999 5.39992 69.7999 6.39992C69.8999 6.59992 69.8999 6.89992 69.8999 7.09992C70.0999 6.59992 70.1999 5.99992 69.9999 5.39992C69.6999 4.29992 68.7999 3.59992 67.9999 3.79992C67.2999 3.99992 66.8999 4.69992 66.8999 5.59992C67.0999 5.29992 67.3999 4.99992 67.7999 4.89992Z" fill="#020303"/>
<path opacity="0.1" d="M77.0001 12L74.8001 14.4C74.4001 13.9 74.5001 13.1 74.7001 12.6C74.6001 12.7 74.6001 12.8 74.5001 12.9C74.5001 12.9 73.9001 14.2 74.5001 15L77.2001 12.1C77.2001 12.1 77.1001 12 77.0001 12Z" fill="#020303"/>
<path opacity="0.1" d="M80.0998 11.7998L80.5998 11.2998C77.4998 6.79982 74.0998 8.89982 74.0998 8.89982C73.0998 9.39982 72.5998 10.4998 72.2998 11.3998C72.5998 10.6998 73.0998 10.0998 73.7998 9.69982C73.8998 9.69982 77.0998 7.79982 80.0998 11.7998Z" fill="#020303"/>
<path opacity="0.1" d="M79.5999 15.2998C77.4999 17.7998 76.0999 16.6998 75.7999 16.2998L75.3999 16.6998C75.3999 16.6998 76.7999 18.5998 79.1999 15.7998L80.9999 17.9998C81.2999 17.7998 81.3999 17.5998 81.3999 17.5998L79.5999 15.2998Z" fill="#020303"/>
<path opacity="0.1" d="M31.2001 8.39987C26.5001 8.09987 22.5001 11.2999 22.2001 15.3999C22.0001 18.0999 23.4001 20.4999 25.7001 21.9999C23.7001 20.5999 22.4001 18.3999 22.6001 15.9999C22.8001 11.9999 26.8001 8.99987 31.5001 9.29987C35.2001 9.49987 38.3001 11.7999 39.2001 14.6999C38.5001 11.2999 35.3001 8.69987 31.2001 8.39987Z" fill="#020303"/>
<path opacity="0.1" d="M34.3999 16.1998C34.2999 18.0998 32.4999 19.5998 30.3999 19.4998C29.1999 19.3998 28.0999 18.8998 27.3999 18.0998C27.9999 19.0998 29.1999 19.7998 30.5999 19.7998C32.6999 19.8998 34.4999 18.4998 34.5999 16.6998C34.5999 16.1998 34.4999 15.6998 34.2999 15.2998C34.3999 15.5998 34.4999 15.8998 34.3999 16.1998Z" fill="#020303"/>
</g>
<path d="M82.6 4.8999C81.7 4.8999 81 5.5999 81 6.4999C81 7.3999 81.7 8.0999 82.6 8.0999C83.5 8.0999 84.2 7.3999 84.2 6.4999C84.2 5.5999 83.5 4.8999 82.6 4.8999ZM82.6 7.8999C81.9 7.8999 81.3 7.2999 81.3 6.5999C81.3 5.8999 81.9 5.2999 82.6 5.2999C83.3 5.2999 83.9 5.8999 83.9 6.5999C84 7.2999 83.4 7.8999 82.6 7.8999ZM83.1 6.6999C83.1 6.5999 83 6.5999 82.9 6.5999C83 6.5999 83.2 6.4999 83.2 6.3999C83.3 6.2999 83.3 6.1999 83.3 6.0999C83.3 5.9999 83.3 5.8999 83.2 5.7999C83.2 5.6999 83.1 5.6999 83 5.5999C82.9 5.5999 82.8 5.5999 82.6 5.5999H82V7.2999H82.3V6.5999H82.4C82.5 6.5999 82.5 6.5999 82.6 6.5999C82.6 6.5999 82.7 6.5999 82.7 6.6999C82.7 6.6999 82.8 6.7999 82.9 6.8999L83.1 7.2999H83.5L83.3 6.9999C83.2 6.8999 83.1 6.7999 83.1 6.6999ZM82.5 6.3999H82.2V5.8999H82.5C82.6 5.8999 82.7 5.8999 82.7 5.8999C82.8 5.8999 82.8 5.8999 82.8 5.9999V6.0999C82.8 6.1999 82.8 6.1999 82.8 6.1999L82.7 6.2999C82.8 6.3999 82.7 6.3999 82.5 6.3999Z" fill="#FAF9F7"/>
</svg>
