<svg width="33" height="20" viewBox="0 0 33 20" fill="none" xmlns="http://www.w3.org/2000/svg">
<path d="M32.9999 18.9C32.9999 19.5 32.4999 20 31.8999 20H1.99991C1.39991 20 0.899902 19.5 0.899902 18.9V1.1C0.899902 0.5 1.39991 0 1.99991 0H31.8999C32.4999 0 32.9999 0.5 32.9999 1.1V18.9Z" fill="#F9F9F9"/>
<path d="M23.0998 8.89995C22.8998 8.79995 22.5998 8.69995 22.0998 8.69995C21.8998 8.69995 21.6998 8.69995 21.4998 8.79995C21.2998 8.79995 21.2998 8.79995 21.1998 8.79995C20.9998 8.79995 20.9998 8.99995 20.9998 8.99995V9.39995C20.9998 9.59995 21.0998 9.59995 21.0998 9.59995C21.1998 9.59995 21.1998 9.49995 21.3998 9.49995C21.5998 9.49995 21.7998 9.39995 21.8998 9.39995C22.0998 9.39995 22.2998 9.39995 22.3998 9.49995C22.4998 9.49995 22.5998 9.59995 22.5998 9.69995V9.79995C22.5998 9.79995 22.5998 9.79995 22.4998 9.79995C22.1998 9.79995 21.9998 9.79995 21.6998 9.89995C21.3998 9.89995 21.1998 9.99995 20.9998 10.1C20.7998 10.2 20.5998 10.3 20.4998 10.5C20.3998 10.7 20.2998 10.8 20.2998 11.1C20.2998 11.3 20.3998 11.5 20.4998 11.6C20.5998 11.7 20.7998 11.8 21.0998 11.8C21.1998 11.8 21.3998 11.8 21.3998 11.8C21.4998 11.8 21.5998 11.8 21.6998 11.7C21.7998 11.7 21.7998 11.6 21.8998 11.6C21.9998 11.5 21.9998 11.5 22.0998 11.5V11.6C22.0998 11.7 22.0998 11.8 22.1998 11.8C22.2998 11.8 22.4998 11.8 22.5998 11.8H22.6998C22.7998 11.8 22.8998 11.7 22.8998 11.6L23.2998 9.89995V9.79995C23.2998 9.69995 23.2998 9.69995 23.2998 9.69995C23.3998 9.19995 23.2998 8.99995 23.0998 8.89995ZM22.1998 10.9C22.0998 10.9 22.0998 11 21.9998 11C21.8998 11 21.7998 11.1 21.6998 11.1C21.5998 11.1 21.4998 11.1 21.3998 11C21.2998 11 21.2998 10.9 21.2998 10.8C21.2998 10.7 21.2998 10.6 21.3998 10.5C21.4998 10.4 21.4998 10.4 21.5998 10.3C21.6998 10.3 21.7998 10.2 21.9998 10.2C22.0998 10.2 22.3998 10.2 22.3998 10.2C22.3998 10.2 22.4998 10.2 22.3998 10.3C22.3998 10.3 22.2998 10.6 22.2998 10.7C22.2998 10.8 22.1998 10.9 22.1998 10.9Z" fill="#336699"/>
<path d="M16.3998 8.79995C16.2998 8.79995 16.0998 8.89995 16.0998 8.99995C16.0998 8.99995 15.2998 10.3 15.2998 10.4C15.2998 10.5 15.1998 10.4 15.1998 10.4L14.9998 8.99995C14.9998 8.89995 14.8998 8.79995 14.6998 8.79995H14.1998C14.0998 8.79995 13.9998 8.89995 13.9998 8.99995C13.9998 8.99995 14.3998 11.1 14.3998 11.5C14.3998 11.8 14.3998 11.8 14.3998 11.8L13.8998 12.6C13.7998 12.7 13.8998 12.8 13.9998 12.8H14.5998C14.6998 12.8 14.8998 12.7 14.8998 12.6L16.9998 8.99995C16.9998 8.99995 17.1998 8.69995 16.9998 8.69995C16.9998 8.79995 16.3998 8.79995 16.3998 8.79995Z" fill="#003366"/>
<path d="M9.69991 9.5C9.49991 9.6 9.29991 9.7 8.99991 9.7H8.8999C8.7999 9.7 8.69991 9.6 8.69991 9.5L8.8999 8.8C8.8999 8.7 8.99991 8.6 9.19991 8.6H9.3999C9.5999 8.6 9.7999 8.6 9.8999 8.7C9.9999 8.8 10.0999 8.9 10.0999 9C9.99991 9.2 9.89991 9.4 9.69991 9.5ZM10.8999 8.5C10.7999 8.4 10.6999 8.3 10.5999 8.2C10.4999 8.1 10.2999 8.1 10.0999 8C9.89991 8 9.69991 8 9.49991 8H8.3999C8.2999 8 8.19991 8.1 8.09991 8.2L7.3999 11.5C7.3999 11.6 7.39991 11.7 7.59991 11.7H8.09991C8.19991 11.7 8.2999 11.6 8.3999 11.5L8.59991 10.7C8.59991 10.6 8.6999 10.5 8.8999 10.5H9.09991C9.79991 10.5 10.2999 10.4 10.5999 10.1C10.9999 9.8 11.0999 9.5 11.0999 9C10.9999 8.7 10.9999 8.6 10.8999 8.5Z" fill="#003366"/>
<path d="M19.4001 9.5C19.2001 9.6 19.0001 9.7 18.7001 9.7H18.6001C18.5001 9.7 18.4001 9.6 18.4001 9.5L18.6001 8.8C18.6001 8.7 18.7001 8.6 18.9001 8.6H19.1001C19.3001 8.6 19.5001 8.6 19.6001 8.7C19.7001 8.8 19.8001 8.9 19.8001 9C19.7001 9.2 19.6001 9.4 19.4001 9.5ZM20.6001 8.5C20.5001 8.4 20.4001 8.3 20.3001 8.2C20.1001 8.1 20.0001 8 19.8001 8C19.6001 8 19.4001 8 19.2001 8H18.1001C18.0001 8 17.9001 8.1 17.8001 8.2L17.1001 11.5C17.1001 11.6 17.1001 11.7 17.3001 11.7H17.8001C17.9001 11.7 18.0001 11.6 18.1001 11.5L18.3001 10.7C18.3001 10.6 18.4001 10.5 18.6001 10.5H18.8001C19.5001 10.5 20.0001 10.4 20.3001 10.1C20.7001 9.8 20.8001 9.5 20.8001 9C20.7001 8.8 20.6001 8.6 20.6001 8.5Z" fill="#336699"/>
<path d="M13.5001 8.89995C13.3001 8.79995 13.0001 8.69995 12.5001 8.69995C12.3001 8.69995 12.1001 8.69995 11.9001 8.79995C11.7001 8.79995 11.7001 8.79995 11.6001 8.79995C11.4001 8.79995 11.4001 8.99995 11.4001 8.99995L11.3001 9.29995C11.3001 9.49995 11.4001 9.49995 11.4001 9.49995C11.5001 9.49995 11.5001 9.39995 11.7001 9.39995C11.9001 9.39995 12.1001 9.29995 12.2001 9.29995C12.4001 9.29995 12.6001 9.29995 12.7001 9.39995C12.8001 9.39995 12.9001 9.49995 12.9001 9.59995V9.69995C12.9001 9.69995 12.9001 9.69995 12.8001 9.69995C12.5001 9.69995 12.3001 9.69995 12.0001 9.79995C11.7001 9.79995 11.5001 9.89995 11.3001 9.99995C11.1001 10.1 10.9001 10.2 10.8001 10.4C10.7001 10.6 10.6001 10.7 10.6001 11C10.6001 11.2 10.7001 11.4 10.8001 11.5C10.9001 11.6 11.1001 11.7 11.4001 11.7C11.5001 11.7 11.7001 11.7 11.7001 11.7C11.8001 11.7 11.9001 11.7 12.0001 11.6C12.1001 11.6 12.1001 11.5 12.2001 11.5C12.3001 11.4 12.3001 11.4 12.4001 11.4V11.5C12.4001 11.6 12.4001 11.7 12.5001 11.7C12.6001 11.7 12.8001 11.7 12.9001 11.7H13.0001C13.1001 11.7 13.2001 11.6 13.2001 11.5L13.6001 9.79995V9.69995C13.6001 9.59995 13.6001 9.59995 13.6001 9.59995C13.8001 9.19995 13.7001 8.99995 13.5001 8.89995ZM12.5001 10.9C12.4001 10.9 12.4001 11 12.3001 11C12.2001 11 12.1001 11.1 12.0001 11.1C11.9001 11.1 11.8001 11.1 11.7001 11C11.6001 11 11.6001 10.9 11.6001 10.8C11.6001 10.7 11.6001 10.6 11.7001 10.5C11.8001 10.4 11.8001 10.4 11.9001 10.3C12.0001 10.3 12.1001 10.2 12.3001 10.2C12.4001 10.2 12.7001 10.2 12.7001 10.2C12.7001 10.2 12.8001 10.2 12.7001 10.3C12.7001 10.3 12.6001 10.6 12.6001 10.7C12.6001 10.8 12.5001 10.9 12.5001 10.9Z" fill="#003366"/>
<path d="M25.1 8.2C25.1 8.1 25.1 8 24.9 8H24.4C24.3 8 24.2 8.1 24.2 8.2C24.2 8.2 24.2 8.2 24.2 8.3L23.5 11.3C23.5 11.4 23.5 11.4 23.5 11.4C23.5 11.5 23.5 11.6 23.6 11.6H24.1C24.2 11.6 24.3 11.5 24.3 11.4L25.1 8.2Z" fill="#336699"/>
<path d="M25.6999 8.6C25.5999 8.6 25.5999 8.6 25.5999 8.6C25.4999 8.6 25.4999 8.6 25.4999 8.6V8.5V8.2H25.3999V8.1H25.4999V8H25.5999V8.1H25.7999V8.2H25.5999V8.4C25.5999 8.4 25.5999 8.4 25.5999 8.5C25.5999 8.5 25.5999 8.6 25.6999 8.6C25.5999 8.6 25.5999 8.6 25.6999 8.6C25.6999 8.5 25.6999 8.5 25.6999 8.6Z" fill="#336699"/>
<path d="M26.5997 8.6001L26.4997 8.3001C26.4997 8.3001 26.4997 8.3001 26.4997 8.2001C26.4997 8.2001 26.4997 8.2001 26.3997 8.2001C26.3997 8.2001 26.3997 8.2001 26.2997 8.2001C26.2997 8.2001 26.2997 8.2001 26.1997 8.2001V8.5001H26.0997V8.3001C26.0997 8.3001 26.0997 8.3001 26.0997 8.2001C26.0997 8.2001 26.0997 8.2001 25.9997 8.2001C25.9997 8.2001 25.9997 8.2001 25.8997 8.2001C25.8997 8.2001 25.8997 8.2001 25.7997 8.2001V8.6001H25.6997V8.1001H25.7997V8.2001C25.7997 8.2001 25.8997 8.2001 25.8997 8.1001H25.9997H26.0997C26.0997 8.1001 26.0997 8.1001 26.1997 8.2001L26.2997 8.1001H26.3997C26.4997 8.1001 26.4997 8.1001 26.4997 8.2001V8.3001V8.6001H26.5997Z" fill="#336699"/>
</svg>
