<svg width="32" height="20" viewBox="0 0 32 20" fill="none" xmlns="http://www.w3.org/2000/svg">
<path d="M32 18.9C32 19.5 31.5 20 30.9 20H1.1C0.5 20 0 19.5 0 18.9V1.1C0 0.5 0.5 0 1.1 0H31C31.5 0 32 0.5 32 1.1V18.9Z" fill="#F9F9F9"/>
<path d="M14.6997 13H13.1997L14.0997 7H15.6997L14.6997 13Z" fill="#0066B2"/>
<path d="M11.7999 7L10.2999 11.1L10.0999 10.2L9.6999 7.5C9.6999 7.5 9.5999 7 8.9999 7H6.3999V7.1C6.3999 7.1 7.1999 7.3 7.9999 7.8L9.3999 13H10.9999L13.4999 7H11.7999Z" fill="#0066B2"/>
<path d="M24.1 13H25.5L24.2 7H22.9C22.3 7 22.2 7.4 22.2 7.4L20 13H21.6L21.9 12.1H23.9L24.1 13ZM22.4 10.9L23.2 8.7L23.7 10.9H22.4Z" fill="#0066B2"/>
<path d="M20.0997 8.40005L20.2997 7.10005C20.2997 7.10005 19.5997 6.80005 18.8997 6.80005C18.0997 6.80005 16.2997 7.10005 16.2997 8.80005C16.2997 10.4 18.4997 10.4 18.4997 11.2C18.4997 12 16.5997 11.9 15.8997 11.4L15.6997 12.7C15.6997 12.7 16.3997 13 17.4997 13C18.5997 13 20.1997 12.4 20.1997 10.9C20.1997 9.30005 17.9997 9.20005 17.9997 8.50005C17.8997 8.00005 19.4997 8.10005 20.0997 8.40005Z" fill="#0066B2"/>
<path d="M10.1999 10.2L9.6999 7.5C9.6999 7.5 9.5999 7 8.9999 7H6.3999V7.1C6.3999 7.1 7.5999 7.3 8.6999 8.3C9.7999 9.1 10.1999 10.2 10.1999 10.2Z" fill="#F9A533"/>
</svg>
