<svg width="33" height="20" viewBox="0 0 33 20" fill="none" xmlns="http://www.w3.org/2000/svg">
<path d="M32.6001 18.9C32.6001 19.5 32.1001 20 31.5001 20H1.7001C1.1001 20 0.600098 19.5 0.600098 18.9V1.1C0.600098 0.5 1.1001 0 1.7001 0H31.6001C32.2001 0 32.7001 0.5 32.7001 1.1V18.9H32.6001Z" fill="#F9F9F9"/>
<path fill-rule="evenodd" clip-rule="evenodd" d="M11.4003 11.2999C13.8003 10.2999 17.2003 9.29989 21.7003 10.2999V9.19989C17.0003 8.69989 13.5003 10.1999 11.3003 11.2999H11.4003Z" fill="#FAA929"/>
<path fill-rule="evenodd" clip-rule="evenodd" d="M7 12.1001H9.3V12.8001H7.9V13.4001H9.3V14.1001H7.9V14.7001H9.3V15.4001H7V12.1001Z" fill="#045EA0"/>
<path fill-rule="evenodd" clip-rule="evenodd" d="M9.8999 11.8H10.6999V15.4H9.8999V11.8Z" fill="#045EA0"/>
<path fill-rule="evenodd" clip-rule="evenodd" d="M13.5001 15.1C13.2001 15.3 12.8001 15.5 12.4001 15.5C11.5001 15.5 11.1001 14.9 11.1001 14.3C11.1001 13.6 11.6001 13 12.4001 13C13.3001 13 13.6001 13.6 13.6001 14.5H12.0001C12.0001 14.7 12.1001 15 12.6001 15C12.9001 15 13.1001 14.9 13.3001 14.8L13.5001 15.1ZM12.9001 13.9C12.9001 13.7 12.8001 13.4 12.5001 13.4C12.2001 13.4 12.0001 13.6 12.0001 13.9H12.9001Z" fill="#045EA0"/>
<path fill-rule="evenodd" clip-rule="evenodd" d="M16.2 15.2001C16 15.3001 15.6 15.4001 15.3 15.4001C14.5 15.4001 14 15.0001 14 14.2001C14 13.4001 14.5 12.9001 15.4 12.9001C15.7 12.9001 16 13.0001 16.2 13.1001L15.9 13.6001C15.8 13.5001 15.6 13.5001 15.5 13.5001C15.1 13.5001 14.8 13.7001 14.8 14.1001C14.8 14.4001 15.1 14.7001 15.4 14.7001C15.6 14.7001 15.7 14.6001 15.8 14.6001L16.2 15.2001Z" fill="#045EA0"/>
<path fill-rule="evenodd" clip-rule="evenodd" d="M16.5 13H16.9V12.2H17.7V13H18.4V13.6H17.7C17.7 13.9 17.7 14.3 17.7 14.5C17.7 14.7 17.8 14.8 17.9 14.8C18 14.8 18.1 14.7 18.2 14.7L18.4 15.3C18.2 15.4 17.9 15.5 17.6 15.5C16.9 15.5 16.9 15.1 16.9 14.5C16.9 14.2 16.9 13.9 16.9 13.6H16.5V13Z" fill="#045EA0"/>
<path fill-rule="evenodd" clip-rule="evenodd" d="M18.7998 13.0001H19.5998V13.3001C19.6998 13.1001 19.8998 12.9001 20.1998 12.9001C20.2998 12.9001 20.3998 12.9001 20.4998 12.9001L20.3998 13.7001C20.2998 13.7001 20.1998 13.7001 20.0998 13.7001C19.7998 13.7001 19.5998 13.9001 19.5998 14.0001V15.4001H18.7998V13.0001Z" fill="#045EA0"/>
<path fill-rule="evenodd" clip-rule="evenodd" d="M22.0001 12.9001C22.9001 12.9001 23.3001 13.5001 23.3001 14.2001C23.3001 14.9001 22.8001 15.5001 22.0001 15.5001C21.1001 15.5001 20.7001 14.9001 20.7001 14.2001C20.6001 13.5001 21.1001 12.9001 22.0001 12.9001ZM22.0001 14.9001C22.4001 14.9001 22.5001 14.6001 22.5001 14.2001C22.5001 13.9001 22.4001 13.5001 22.0001 13.5001C21.6001 13.5001 21.5001 13.8001 21.5001 14.2001C21.5001 14.5001 21.6001 14.9001 22.0001 14.9001Z" fill="#045EA0"/>
<path fill-rule="evenodd" clip-rule="evenodd" d="M23.7998 13H24.5998V13.3C24.7998 13.1 25.0998 13 25.3998 13C25.8998 13 26.1998 13.3 26.1998 13.9C26.1998 14.4 26.1998 14.9 26.1998 15.5H25.3998C25.3998 15 25.3998 14.6 25.3998 14.1C25.3998 13.9 25.2998 13.8 25.0998 13.8C24.9998 13.8 24.7998 13.9 24.6998 14V15.6H23.8998L23.7998 13Z" fill="#045EA0"/>
<path fill-rule="evenodd" clip-rule="evenodd" d="M13.7998 7.99985L14.8998 4.59985H15.7998L14.7998 7.99985H13.7998Z" fill="#045EA0"/>
<path fill-rule="evenodd" clip-rule="evenodd" d="M13.3999 4.6L12.5999 6.1C12.3999 6.5 12.2999 6.7 12.1999 6.9C12.1999 6.6 12.1999 6.2 12.1999 6L11.9999 4.6H10.3999V4.7C10.7999 4.7 10.9999 4.9 11.0999 5.3L11.4999 8H12.4999L14.4999 4.5H13.3999V4.6Z" fill="#045EA0"/>
<path fill-rule="evenodd" clip-rule="evenodd" d="M20.6998 8V7.5H19.4998L19.2998 8H18.2998L20.0998 4.5H21.2998L21.5998 8H20.6998ZM20.5998 6C20.5998 5.7 20.5998 5.4 20.5998 5.2C20.4998 5.4 20.2998 5.9 20.1998 6.1L19.8998 6.9H20.6998L20.5998 6Z" fill="#045EA0"/>
<path fill-rule="evenodd" clip-rule="evenodd" d="M16.7999 8.0999C16.0999 8.0999 15.6999 7.8999 15.3999 7.6999L15.7999 6.9999C16.0999 7.1999 16.2999 7.2999 16.7999 7.2999C16.9999 7.2999 17.0999 7.2999 17.1999 7.0999C17.2999 6.8999 17.1999 6.7999 16.7999 6.4999L16.5999 6.3999C16.0999 5.9999 15.7999 5.6999 16.0999 5.0999C16.2999 4.6999 16.6999 4.3999 17.3999 4.3999C17.8999 4.3999 18.2999 4.5999 18.5999 4.7999L18.0999 5.3999C17.7999 5.1999 17.5999 5.0999 17.3999 5.0999C17.1999 5.0999 17.0999 5.1999 16.9999 5.2999C16.8999 5.4999 16.9999 5.5999 17.2999 5.7999L17.5999 5.9999C18.2999 6.3999 18.3999 6.8999 18.2999 7.2999C17.8999 7.9999 17.3999 8.0999 16.7999 8.0999Z" fill="#045EA0"/>
</svg>
